<svg xmlns="http://www.w3.org/2000/svg" width="640" height="400" viewBox="0 0 640 400" font-family="Arial, Helvetica, sans-serif"><rect x="0" y="0" width="640" height="400" fill="#ffffff"></rect><text x="320" y="22" text-anchor="middle" font-size="15" font-weight="bold" fill="#1a1a1a">Life Expectancy at Birth vs. World Baseline</text><text x="320" y="39" text-anchor="middle" font-size="11" fill="#555555">Baseline (world): 73.48 years (life expectancy at birth) — fetched 2026-07-26</text><g><g><line x1="157.58341638429346" x2="157.58341638429346" y1="54" y2="366" stroke="#e8e8e8" stroke-width="1"></line><text x="157.58341638429346" y="382" text-anchor="middle" font-size="9" fill="#777777">-20</text><line x1="222.36316523819022" x2="222.36316523819022" y1="54" y2="366" stroke="#e8e8e8" stroke-width="1"></line><text x="222.36316523819022" y="382" text-anchor="middle" font-size="9" fill="#777777">-15</text><line x1="287.1429140920869" x2="287.1429140920869" y1="54" y2="366" stroke="#e8e8e8" stroke-width="1"></line><text x="287.1429140920869" y="382" text-anchor="middle" font-size="9" fill="#777777">-10</text><line x1="351.9226629459837" x2="351.9226629459837" y1="54" y2="366" stroke="#e8e8e8" stroke-width="1"></line><text x="351.9226629459837" y="382" text-anchor="middle" font-size="9" fill="#777777">-5</text><line x1="416.70241179988045" x2="416.70241179988045" y1="54" y2="366" stroke="#e8e8e8" stroke-width="1"></line><text x="416.70241179988045" y="382" text-anchor="middle" font-size="9" fill="#777777">0</text><line x1="481.4821606537772" x2="481.4821606537772" y1="54" y2="366" stroke="#e8e8e8" stroke-width="1"></line><text x="481.4821606537772" y="382" text-anchor="middle" font-size="9" fill="#777777">+5</text><line x1="546.2619095076739" x2="546.2619095076739" y1="54" y2="366" stroke="#e8e8e8" stroke-width="1"></line><text x="546.2619095076739" y="382" text-anchor="middle" font-size="9" fill="#777777">+10</text><text x="363" y="396" text-anchor="middle" font-size="10" fill="#555555">Δ from world baseline (years)</text></g><rect x="416.70241179988045" y="59.72" width="136.81482957943" height="14.56" fill="#2a9d8f" rx="2"></rect><text x="132" y="70.5" text-anchor="end" font-size="10.5" fill="#1a1a1a">Japan</text><text x="558.5172413793105" y="70.5" text-anchor="start" font-size="9.5" fill="#333333">+10.56 (84.04)</text><rect x="416.70241179988045" y="85.72" width="123.08152282240383" height="14.56" fill="#2a9d8f" rx="2"></rect><text x="132" y="96.5" text-anchor="end" font-size="10.5" fill="#1a1a1a">France</text><text x="544.7839346222843" y="96.5" text-anchor="start" font-size="9.5" fill="#333333">+9.5 (82.98)</text><rect x="416.70241179988045" y="111.72" width="94.70799282439702" height="14.56" fill="#2a9d8f" rx="2"></rect><text x="132" y="122.5" text-anchor="end" font-size="10.5" fill="#1a1a1a">Germany</text><text x="516.4104046242775" y="122.5" text-anchor="start" font-size="9.5" fill="#333333">+7.31 (80.79)</text><rect x="416.70241179988045" y="137.72" width="70.09168825991628" height="14.56" fill="#2a9d8f" rx="2"></rect><text x="132" y="148.5" text-anchor="end" font-size="10.5" fill="#1a1a1a">United States</text><text x="491.79410005979673" y="148.5" text-anchor="start" font-size="9.5" fill="#333333">+5.41 (78.89)</text><rect x="416.70241179988045" y="163.72" width="58.82001195933822" height="14.56" fill="#2a9d8f" rx="2"></rect><text x="132" y="174.5" text-anchor="end" font-size="10.5" fill="#1a1a1a">China</text><text x="480.52242375921867" y="174.5" text-anchor="start" font-size="9.5" fill="#333333">+4.54 (78.02)</text><rect x="416.70241179988045" y="189.72" width="32.908112417779535" height="14.56" fill="#2a9d8f" rx="2"></rect><text x="132" y="200.5" text-anchor="end" font-size="10.5" fill="#1a1a1a">Brazil</text><text x="454.61052421766" y="200.5" text-anchor="start" font-size="9.5" fill="#333333">+2.54 (76.02)</text><rect x="416.70241179988045" y="215.72" width="23.061590591987283" height="14.56" fill="#2a9d8f" rx="2"></rect><text x="132" y="226.5" text-anchor="end" font-size="10.5" fill="#1a1a1a">Mexico</text><text x="444.76400239186773" y="226.5" text-anchor="start" font-size="9.5" fill="#333333">+1.78 (75.26)</text><rect x="400.50747458640626" y="241.72" width="16.19493721347419" height="14.56" fill="#e76f51" rx="2"></rect><text x="132" y="252.5" text-anchor="end" font-size="10.5" fill="#1a1a1a">India</text><text x="395.50747458640626" y="252.5" text-anchor="end" font-size="9.5" fill="#333333">-1.25 (72.23)</text><rect x="395.06597568267887" y="267.72" width="21.636436117201583" height="14.56" fill="#e76f51" rx="2"></rect><text x="132" y="278.5" text-anchor="end" font-size="10.5" fill="#1a1a1a">Egypt, Arab Rep.</text><text x="390.06597568267887" y="278.5" text-anchor="end" font-size="9.5" fill="#333333">-1.67 (71.81)</text><rect x="388.32888180187365" y="293.72" width="28.373529998006802" height="14.56" fill="#e76f51" rx="2"></rect><text x="132" y="304.5" text-anchor="end" font-size="10.5" fill="#1a1a1a">Indonesia</text><text x="383.32888180187365" y="304.5" text-anchor="end" font-size="9.5" fill="#333333">-2.19 (71.29)</text><rect x="323.8082519433925" y="319.72" width="92.89415985648793" height="14.56" fill="#e76f51" rx="2"></rect><text x="132" y="330.5" text-anchor="end" font-size="10.5" fill="#1a1a1a">South Africa</text><text x="318.8082519433925" y="330.5" text-anchor="end" font-size="9.5" fill="#333333">-7.17 (66.31)</text><rect x="172.48275862068968" y="345.72" width="244.21965317919077" height="14.56" fill="#e76f51" rx="2"></rect><text x="132" y="356.5" text-anchor="end" font-size="10.5" fill="#1a1a1a">Nigeria</text><text x="167.48275862068968" y="356.5" text-anchor="end" font-size="9.5" fill="#333333">-18.85 (54.63)</text><line x1="416.70241179988045" x2="416.70241179988045" y1="54" y2="366" stroke="#333333" stroke-width="1.25"></line></g></svg>