<svg xmlns="http://www.w3.org/2000/svg" width="640" height="400" viewBox="0 0 640 400" font-family="'Segoe UI', system-ui, -apple-system, Roboto, sans-serif"><rect x="0" y="0" width="640" height="400" fill="#0b0f1e"></rect><g opacity="0.55"><circle cx="24" cy="30" r="1" fill="#aab4d6"></circle><circle cx="58" cy="140" r="1" fill="#aab4d6"></circle><circle cx="92" cy="60" r="1" fill="#aab4d6"></circle><circle cx="150" cy="340" r="1" fill="#aab4d6"></circle><circle cx="210" cy="44" r="1" fill="#aab4d6"></circle><circle cx="300" cy="360" r="1" fill="#aab4d6"></circle><circle cx="360" cy="30" r="1" fill="#aab4d6"></circle><circle cx="430" cy="352" r="1" fill="#aab4d6"></circle><circle cx="500" cy="50" r="1" fill="#aab4d6"></circle><circle cx="560" cy="300" r="1" fill="#aab4d6"></circle><circle cx="610" cy="120" r="1" fill="#aab4d6"></circle><circle cx="36" cy="250" r="1" fill="#aab4d6"></circle><circle cx="112" cy="300" r="1" fill="#aab4d6"></circle><circle cx="260" cy="26" r="1" fill="#aab4d6"></circle><circle cx="470" cy="20" r="1" fill="#aab4d6"></circle><circle cx="600" cy="220" r="1" fill="#aab4d6"></circle><circle cx="20" cy="190" r="1" fill="#aab4d6"></circle><circle cx="330" cy="190" r="1" fill="#aab4d6"></circle><circle cx="400" cy="170" r="1" fill="#aab4d6"></circle><circle cx="520" cy="180" r="1" fill="#aab4d6"></circle></g><text x="32" y="34" font-size="19" font-weight="700" fill="#eef1f8">The Eight Planets</text><text x="32" y="54" font-size="11.5" fill="#8b96b8">Mark size ∝ equatorial diameter · position ∝ distance from the Sun (log AU)</text><line x1="75" y1="236" x2="588" y2="236" stroke="#2a3355" stroke-width="1" stroke-dasharray="2 5" opacity="0.7"></line><g><circle cx="56" cy="236" r="18" fill="none" stroke="#f4c869" stroke-width="1" opacity="0.3"></circle><line x1="72" y1="236" x2="78" y2="236" stroke="#f4c869" stroke-width="1.4" stroke-linecap="round" opacity="0.75"></line><line x1="67.31370849898477" y1="247.31370849898477" x2="71.55634918610404" y2="251.55634918610406" stroke="#f4c869" stroke-width="1.4" stroke-linecap="round" opacity="0.75"></line><line x1="56" y1="252" x2="56" y2="258" stroke="#f4c869" stroke-width="1.4" stroke-linecap="round" opacity="0.75"></line><line x1="44.68629150101524" y1="247.31370849898477" x2="40.44365081389596" y2="251.55634918610406" stroke="#f4c869" stroke-width="1.4" stroke-linecap="round" opacity="0.75"></line><line x1="40" y1="236" x2="34" y2="236" stroke="#f4c869" stroke-width="1.4" stroke-linecap="round" opacity="0.75"></line><line x1="44.68629150101523" y1="224.68629150101523" x2="40.44365081389595" y2="220.44365081389594" stroke="#f4c869" stroke-width="1.4" stroke-linecap="round" opacity="0.75"></line><line x1="56" y1="220" x2="55.99999999999999" y2="214" stroke="#f4c869" stroke-width="1.4" stroke-linecap="round" opacity="0.75"></line><line x1="67.31370849898475" y1="224.68629150101523" x2="71.55634918610404" y2="220.44365081389594" stroke="#f4c869" stroke-width="1.4" stroke-linecap="round" opacity="0.75"></line><circle cx="56" cy="236" r="13" fill="#f4c869"></circle><text x="56" y="271" text-anchor="middle" font-size="10" fill="#8892b0">Sun</text></g><defs><clipPath id="mk01-clip-mercury"><circle cx="140" cy="236" r="5"></circle></clipPath><clipPath id="mk01-clip-venus"><circle cx="203.2230693116403" cy="236" r="7.736241618589134"></circle></clipPath><clipPath id="mk01-clip-earth"><circle cx="237.09826728165527" cy="236" r="7.935441892606203"></circle></clipPath><clipPath id="mk01-clip-mars"><circle cx="280.27549676362594" cy="236" r="5.85583472956197"></circle></clipPath><clipPath id="mk01-clip-jupiter"><circle cx="407.1072350290757" cy="236" r="26"></circle></clipPath><clipPath id="mk01-clip-saturn"><circle cx="470.1152478091416" cy="236" r="23.89175334786842"></circle></clipPath><clipPath id="mk01-clip-uranus"><circle cx="541.8073432104499" cy="236" r="15.6431770666921"></circle></clipPath><clipPath id="mk01-clip-neptune"><circle cx="588" cy="236" r="15.401760003908107"></circle></clipPath></defs><g><circle cx="140" cy="236" r="8" fill="none" stroke="#8c7b6b" stroke-width="1" opacity="0.35"></circle><circle cx="140" cy="236" r="5" fill="#8c7b6b" stroke="#05070d" stroke-width="0.75"></circle><circle cx="138.4" cy="234.4" r="4.25" fill="#ffffff" opacity="0.28" clip-path="url(#mk01-clip-mercury)"></circle><text x="140" y="259" text-anchor="middle" font-size="11.5" font-weight="600" fill="#e8ecf5">Mercury</text></g><g><circle cx="203.2230693116403" cy="236" r="10.736241618589133" fill="none" stroke="#d9a35b" stroke-width="1" opacity="0.35"></circle><circle cx="203.2230693116403" cy="236" r="7.736241618589134" fill="#d9a35b" stroke="#05070d" stroke-width="0.75"></circle><circle cx="200.7474719936918" cy="233.5244026820515" r="6.575805375800764" fill="#ffffff" opacity="0.28" clip-path="url(#mk01-clip-venus)"></circle><text x="203.2230693116403" y="261.73624161858913" text-anchor="middle" font-size="11.5" font-weight="600" fill="#e8ecf5">Venus</text></g><g><circle cx="237.09826728165527" cy="236" r="10.935441892606203" fill="none" stroke="#2c7bb6" stroke-width="1" opacity="0.35"></circle><circle cx="237.09826728165527" cy="236" r="7.935441892606203" fill="#2c7bb6" stroke="#05070d" stroke-width="0.75"></circle><circle cx="234.55892587602128" cy="233.460658594366" r="6.745125608715273" fill="#ffffff" opacity="0.28" clip-path="url(#mk01-clip-earth)"></circle><text x="237.09826728165527" y="261.9354418926062" text-anchor="middle" font-size="11.5" font-weight="600" fill="#e8ecf5">Earth</text></g><g><circle cx="280.27549676362594" cy="236" r="8.85583472956197" fill="none" stroke="#c1440e" stroke-width="1" opacity="0.35"></circle><circle cx="280.27549676362594" cy="236" r="5.85583472956197" fill="#c1440e" stroke="#05070d" stroke-width="0.75"></circle><circle cx="278.4016296501661" cy="234.12613288654018" r="4.977459520127674" fill="#ffffff" opacity="0.28" clip-path="url(#mk01-clip-mars)"></circle><text x="280.27549676362594" y="259.85583472956193" text-anchor="middle" font-size="11.5" font-weight="600" fill="#e8ecf5">Mars</text></g><g><circle cx="407.1072350290757" cy="236" r="29" fill="none" stroke="#b07d52" stroke-width="1" opacity="0.35"></circle><circle cx="407.1072350290757" cy="236" r="26" fill="#b07d52" stroke="#05070d" stroke-width="0.75"></circle><circle cx="398.7872350290757" cy="227.68" r="22.099999999999998" fill="#ffffff" opacity="0.28" clip-path="url(#mk01-clip-jupiter)"></circle><text x="407.1072350290757" y="280" text-anchor="middle" font-size="11.5" font-weight="600" fill="#e8ecf5">Jupiter</text></g><g><ellipse cx="470.1152478091416" cy="236" rx="34.891753347868416" ry="8.601031205232632" fill="none" stroke="#c9b47a" stroke-width="2.2" opacity="0.55" transform="rotate(-18 470.1152478091416 236)"></ellipse><circle cx="470.1152478091416" cy="236" r="26.89175334786842" fill="none" stroke="#c9b47a" stroke-width="1" opacity="0.35"></circle><circle cx="470.1152478091416" cy="236" r="23.89175334786842" fill="#c9b47a" stroke="#05070d" stroke-width="0.75"></circle><circle cx="462.4698867378237" cy="228.3546389286821" r="20.307990345688157" fill="#ffffff" opacity="0.28" clip-path="url(#mk01-clip-saturn)"></circle><text x="470.1152478091416" y="277.8917533478684" text-anchor="middle" font-size="11.5" font-weight="600" fill="#e8ecf5">Saturn</text></g><g><circle cx="541.8073432104499" cy="236" r="18.6431770666921" fill="none" stroke="#78c6d0" stroke-width="1" opacity="0.35"></circle><circle cx="541.8073432104499" cy="236" r="15.6431770666921" fill="#78c6d0" stroke="#05070d" stroke-width="0.75"></circle><circle cx="536.8015265491084" cy="230.99418333865853" r="13.296700506688286" fill="#ffffff" opacity="0.28" clip-path="url(#mk01-clip-uranus)"></circle><text x="541.8073432104499" y="269.6431770666921" text-anchor="middle" font-size="11.5" font-weight="600" fill="#e8ecf5">Uranus</text></g><g><circle cx="588" cy="236" r="18.40176000390811" fill="none" stroke="#3f5ea8" stroke-width="1" opacity="0.35"></circle><circle cx="588" cy="236" r="15.401760003908107" fill="#3f5ea8" stroke="#05070d" stroke-width="0.75"></circle><circle cx="583.0714367987495" cy="231.0714367987494" r="13.091496003321891" fill="#ffffff" opacity="0.28" clip-path="url(#mk01-clip-neptune)"></circle><text x="588" y="269.40176000390807" text-anchor="middle" font-size="11.5" font-weight="600" fill="#e8ecf5">Neptune</text></g><line x1="237.09826728165527" y1="312" x2="237.09826728165527" y2="320" stroke="#2a3355" stroke-width="1"></line><text x="237.09826728165527" y="334" text-anchor="middle" font-size="9.5" fill="#8892b0">1 AU</text><line x1="474.53985084237996" y1="312" x2="474.53985084237996" y2="320" stroke="#2a3355" stroke-width="1"></line><text x="474.53985084237996" y="334" text-anchor="middle" font-size="9.5" fill="#8892b0">10 AU</text><text x="32" y="386" font-size="9.5" fill="#5b6584">Radius ∝ √diameter (km) · x-position ∝ log(distance, AU) · color is a designed palette, not measure-encoded</text><text x="624" y="386" text-anchor="end" font-size="9.5" fill="#5b6584">Source: https://science.nasa.gov/solar-system/planets/</text></svg>